<svg width="39" height="35" viewBox="0 0 39 35" fill="none" xmlns="http://www.w3.org/2000/svg">
<rect width="38" height="34" rx="8" transform="matrix(-1 0 0 1 38.5 0.5)" fill="#F9F9FC"/>
<rect width="38" height="34" rx="8" transform="matrix(-1 0 0 1 38.5 0.5)" stroke="#EEF0F2"/>
<path d="M16.2998 21.5C16.1416 21.5 15.987 21.453 15.8555 21.3651C15.7239 21.2772 15.6214 21.1523 15.5609 21.0061C15.5004 20.86 15.4845 20.6991 15.5154 20.544C15.5462 20.3888 15.6224 20.2463 15.7342 20.1344L18.3687 17.5L15.7342 14.8656C15.5885 14.7147 15.5079 14.5126 15.5097 14.3029C15.5115 14.0931 15.5957 13.8925 15.744 13.7441C15.8923 13.5958 16.093 13.5117 16.3027 13.5099C16.5125 13.508 16.7146 13.5887 16.8655 13.7344L20.0655 16.9344C20.2155 17.0844 20.2998 17.2879 20.2998 17.5C20.2998 17.7121 20.2155 17.9156 20.0655 18.0656L16.8655 21.2656C16.7913 21.34 16.7031 21.399 16.606 21.4392C16.509 21.4795 16.4049 21.5001 16.2998 21.5ZM22.7 21.5C22.4878 21.5 22.2843 21.4157 22.1343 21.2657C21.9843 21.1157 21.9 20.9122 21.9 20.7V14.3C21.9 14.0878 21.9843 13.8843 22.1343 13.7343C22.2843 13.5843 22.4878 13.5 22.7 13.5C22.9122 13.5 23.1156 13.5843 23.2657 13.7343C23.4157 13.8843 23.5 14.0878 23.5 14.3V20.7C23.5 20.9122 23.4157 21.1157 23.2657 21.2657C23.1156 21.4157 22.9122 21.5 22.7 21.5Z" fill="#434957"/>
</svg>
