<svg width="36" height="35" viewBox="0 0 36 35" fill="none" xmlns="http://www.w3.org/2000/svg">
<rect width="34.7998" height="34" rx="8" transform="matrix(-1 0 0 1 35.2998 0.5)" fill="#F9F9FC"/>
<rect width="34.7998" height="34" rx="8" transform="matrix(-1 0 0 1 35.2998 0.5)" stroke="#EEF0F2"/>
<path d="M16.2998 21.4951C16.1416 21.4951 15.987 21.4481 15.8555 21.3602C15.7239 21.2723 15.6214 21.1474 15.5609 21.0012C15.5004 20.8551 15.4845 20.6943 15.5154 20.5391C15.5462 20.3839 15.6224 20.2414 15.7342 20.1295L18.3687 17.4951L15.7342 14.8607C15.5885 14.7098 15.5079 14.5078 15.5097 14.298C15.5115 14.0882 15.5957 13.8876 15.744 13.7393C15.8923 13.5909 16.093 13.5068 16.3027 13.505C16.5125 13.5032 16.7146 13.5838 16.8655 13.7295L20.0655 16.9295C20.2155 17.0795 20.2998 17.283 20.2998 17.4951C20.2998 17.7072 20.2155 17.9107 20.0655 18.0607L16.8655 21.2607C16.7913 21.3351 16.7031 21.3941 16.606 21.4343C16.509 21.4746 16.4049 21.4952 16.2998 21.4951Z" fill="#434957"/>
</svg>
