<svg width="36" height="35" viewBox="0 0 36 35" fill="none" xmlns="http://www.w3.org/2000/svg">
<rect x="0.5" y="0.5" width="34.7998" height="34" rx="8" fill="#F9F9FC"/>
<rect x="0.5" y="0.5" width="34.7998" height="34" rx="8" stroke="#EEF0F2"/>
<path d="M19.4999 21.4951C19.6581 21.4951 19.8128 21.4481 19.9443 21.3602C20.0758 21.2723 20.1783 21.1474 20.2389 21.0012C20.2994 20.8551 20.3153 20.6943 20.2844 20.5391C20.2536 20.3839 20.1774 20.2414 20.0655 20.1295L17.4311 17.4951L20.0655 14.8607C20.2113 14.7098 20.2919 14.5078 20.2901 14.298C20.2883 14.0882 20.2041 13.8876 20.0558 13.7393C19.9075 13.5909 19.7068 13.5068 19.497 13.505C19.2873 13.5032 19.0852 13.5838 18.9343 13.7295L15.7342 16.9295C15.5843 17.0795 15.5 17.283 15.5 17.4951C15.5 17.7072 15.5843 17.9107 15.7342 18.0607L18.9343 21.2607C19.0085 21.3351 19.0967 21.3941 19.1937 21.4343C19.2908 21.4746 19.3949 21.4952 19.4999 21.4951Z" fill="#434957" fill-opacity="0.25"/>
</svg>
