<svg width="39" height="35" viewBox="0 0 39 35" fill="none" xmlns="http://www.w3.org/2000/svg">
<rect x="0.5" y="0.5" width="38" height="34" rx="8" fill="#F9F9FC"/>
<rect x="0.5" y="0.5" width="38" height="34" rx="8" stroke="#EEF0F2"/>
<path d="M22.7002 21.5C22.8584 21.5 23.013 21.453 23.1445 21.3651C23.2761 21.2772 23.3786 21.1523 23.4391 21.0061C23.4996 20.86 23.5155 20.6991 23.4846 20.544C23.4538 20.3888 23.3776 20.2463 23.2658 20.1344L20.6313 17.5L23.2658 14.8656C23.4115 14.7147 23.4921 14.5126 23.4903 14.3029C23.4885 14.0931 23.4043 13.8925 23.256 13.7441C23.1077 13.5958 22.907 13.5117 22.6973 13.5099C22.4875 13.508 22.2854 13.5887 22.1345 13.7344L18.9345 16.9344C18.7845 17.0844 18.7002 17.2879 18.7002 17.5C18.7002 17.7121 18.7845 17.9156 18.9345 18.0656L22.1345 21.2656C22.2087 21.34 22.2969 21.399 22.394 21.4392C22.491 21.4795 22.5951 21.5001 22.7002 21.5ZM16.3 21.5C16.5122 21.5 16.7157 21.4157 16.8657 21.2657C17.0157 21.1157 17.1 20.9122 17.1 20.7V14.3C17.1 14.0878 17.0157 13.8843 16.8657 13.7343C16.7157 13.5843 16.5122 13.5 16.3 13.5C16.0878 13.5 15.8844 13.5843 15.7343 13.7343C15.5843 13.8843 15.5 14.0878 15.5 14.3V20.7C15.5 20.9122 15.5843 21.1157 15.7343 21.2657C15.8844 21.4157 16.0878 21.5 16.3 21.5Z" fill="#434957" fill-opacity="0.25"/>
</svg>
