<svg width="33" height="34" viewBox="0 0 33 34" fill="none" xmlns="http://www.w3.org/2000/svg">
<rect width="33" height="34" rx="16.5" fill="white"/>
<path d="M20.0833 12.07C20.8529 12.9357 21.2136 14.1141 21.0452 15.3647C20.7567 17.6734 19.0732 18.491 17.5822 18.491H17.462V19.0682C17.462 19.5973 17.0291 20.0302 16.5 20.0302C15.9709 20.0302 15.538 19.5973 15.538 19.0682V18.2986C15.538 17.505 15.8747 16.5671 17.5822 16.5671C18.5201 16.5671 19.0011 16.0861 19.1213 15.1242C19.1694 14.8115 19.1935 13.9698 18.6163 13.3446C18.1594 12.8395 17.4139 12.575 16.4038 12.575C14.2394 12.575 14.1673 13.9939 14.1673 14.1382C14.1673 14.6673 13.7344 15.1001 13.2053 15.1001C12.6762 15.1001 12.2433 14.6673 12.2433 14.1382C12.2433 13.1762 12.9889 10.6511 16.4038 10.6511C18.3999 10.6511 19.5061 11.4207 20.0833 12.07ZM16.4279 20.8478C16.1152 20.8478 15.8026 20.9681 15.5861 21.2086C15.3697 21.425 15.2254 21.7376 15.2254 22.0503C15.2254 22.3629 15.3457 22.6755 15.5861 22.892C15.8026 23.1084 16.1152 23.2527 16.4279 23.2527C16.7405 23.2527 17.0531 23.1325 17.2696 22.892C17.486 22.6755 17.6303 22.3629 17.6303 22.0503C17.6303 21.7376 17.5101 21.425 17.2696 21.2086C17.0531 20.9921 16.7645 20.8478 16.4279 20.8478ZM27.5625 17C27.5625 23.1084 22.6084 28.0625 16.5 28.0625C10.3916 28.0625 5.4375 23.1084 5.4375 17C5.4375 10.8916 10.3916 5.9375 16.5 5.9375C22.6084 5.9375 27.5625 10.8916 27.5625 17ZM25.6386 17C25.6386 11.9497 21.5503 7.86141 16.5 7.86141C11.4497 7.86141 7.36141 11.9497 7.36141 17C7.36141 22.0503 11.4497 26.1386 16.5 26.1386C21.5503 26.1386 25.6386 22.0503 25.6386 17Z" fill="#2F3545"/>
</svg>
